# xmcd
#
# Track frame offsets:
#	150
#	12273
#	24790
#	43830
#	57625
#	72313
#	92213
#	105145
#	119478
#	134313
#	153815
#	172078
#	193138
#	208098
#	223245
#
# Disc length: 3081 seconds
# Revision: 0
# Processed by: cddbd v1.5.2PL0 Copyright (c) Steve Scherf et al.
# Submitted via: dBpowerAMP V12.0
#
DISCID=d90c070f
DTITLE=Carlos Papel - O Vôo das Tartarugas
DYEAR=1996
DGENRE=Brazil
TTITLE0=Crepúsculo
TTITLE1=Atrás das Seis
TTITLE2=Chorando Inocência
TTITLE3=Musa
TTITLE4=Sol da Manhã
TTITLE5=Vagaluz
TTITLE6=Pega Fogo, Taca Água
TTITLE7=Boneca
TTITLE8=Riscos
TTITLE9=Lendas Itabapoanas
TTITLE10=Apenas o Maluco do Lado
TTITLE11=Cabeça pode
TTITLE12=O Vôo das Tartarugas
TTITLE13=Repare
TTITLE14=Lembrar de Mim
EXTD=
EXTT0=
EXTT1=
EXTT2=
EXTT3=
EXTT4=
EXTT5=
EXTT6=
EXTT7=
EXTT8=
EXTT9=
EXTT10=
EXTT11=
EXTT12=
EXTT13=
EXTT14=
PLAYORDER=
